#!OML:ASF F:\VICON\USERDATA\INSTALL\rory3\rory3.ASF
:FULLY-SPECIFIED
:DEGREES
269
root -0.0157 17.8811 -10.0466 4.07177 0.3061 -4.88041
lowerback 17.0795 0.282084 1.9242
upperback 1.75822 0.752955 0.268076
thorax -7.67094 0.30618 -0.980861
lowerneck -1.92248 0.206817 -0.467365
upperneck -11.469 0.293671 0.211124
head -3.34657 0.159302 0.142233
rclavicle 3.67752e-015 -7.95139e-016
rhumerus -42.567 16.6637 -90.6368
rradius 90.5893
rwrist -1.41066
rhand -33.5863 33.5751
rfingers 7.12502
rthumb -6.78017 3.70364
lclavicle 3.67752e-015 -7.95139e-016
lhumerus -49.179 -9.75544 93.1682
lradius 109.325
lwrist 27.0304
lhand -39.4585 7.93152
lfingers 7.12502
lthumb -12.4457 37.541
rfemur 3.47705 1.58365 28.8404
rtibia 82.0504
rfoot 25.903 -12.3041
rtoes 21.2449
lfemur -29.0228 2.612 -18.3304
ltibia 33.1982
lfoot -2.91904 -4.92093
ltoes -6.66204
270
root -0.0157 17.7574 -9.789 3.55381 0.3061 -4.40369
lowerback 17.1766 -0.260743 1.88678
upperback 2.18061 0.00982433 0.0343028
thorax -7.28958 -0.0479967 -1.03734
lowerneck -2.21714 0.285124 -0.460451
upperneck -11.5577 0.416179 0.38525
head -3.32363 0.21388 0.195091
rclavicle 3.77691e-015 4.37326e-015
rhumerus -42.6273 15.5789 -90.1874
rradius 88.7385
rwrist -0.831343
rhand -33.5127 33.1437
rfingers 7.12502
rthumb -6.70917 3.26995
lclavicle 3.77691e-015 4.37326e-015
lhumerus -46.6781 -10.54 92.7746
lradius 109.777
lwrist 27.2326
lhand -39.6488 7.4452
lfingers 7.12502
lthumb -12.6292 37.0434
rfemur 1.37073 -0.315504 27.5221
rtibia 86.6765
rfoot 24.1484 -12.5916
rtoes 22.0385
lfemur -28.3044 1.81241 -19.0951
ltibia 36.0057
lfoot -5.72895 -5.07891
ltoes -3.26119
271
root -0.0156 17.6372 -9.5315 3.01921 0.3061 -3.99589
lowerback 17.6729 -0.675432 1.70608
upperback 2.34869 -0.57619 -0.165697
thorax -7.39847 -0.328233 -1.01115
lowerneck -1.66432 0.448289 -0.450584
upperneck -12.0528 0.648023 0.51764
head -3.60234 0.322867 0.230531
rclavicle 3.97569e-016 1.51076e-014
rhumerus -43.2934 14.323 -89.8424
rradius 87.2076
rwrist -0.291249
rhand -33.2099 34.151
rfingers 7.12502
rthumb -6.41687 4.26822
lclavicle 3.97569e-016 1.51076e-014
lhumerus -44.5141 -11.1085 92.3248
lradius 110.408
lwrist 27.3831
lhand -38.7269 6.89012
lfingers 7.12502
lthumb -11.7403 36.5411
rfemur -0.853773 -1.76809 26.3215
rtibia 91.1207
rfoot 22.534 -12.2734
rtoes 22.3237
lfemur -27.7477 1.23012 -19.7808
ltibia 38.497
lfoot -8.22889 -4.53007
ltoes -4.00272
272
root -0.0155 17.5221 -9.2739 2.48583 0.3061 -3.24862
lowerback 18.9461 -0.889937 0.751224
upperback 2.24204 -1.0361 -0.256011
thorax -8.20877 -0.525232 -0.439422
lowerneck -1.12708 0.532658 -0.614747
upperneck -12.5731 0.766664 0.605719
head -3.89142 0.3843 0.28398
rclavicle 2.78299e-015 -2.38542e-015
rhumerus -44.1532 13.0583 -89.1753
rradius 85.6019
rwrist 0.243118
rhand -33.5139 35.0898
rfingers 7.12502
rthumb -6.71037 5.2161
lclavicle 2.78299e-015 -2.38542e-015
lhumerus -42.2008 -11.7602 92.1654
lradius 110.734
lwrist 27.376
lhand -37.7836 6.82357
lfingers 7.12502
lthumb -10.8306 36.5243
rfemur -3.23727 -3.09092 24.7864
rtibia 95.3774
rfoot 21.3805 -11.8033
rtoes 24.7729
lfemur -26.4338 0.428691 -20.6731
ltibia 40.5657
lfoot -10.9551 -3.29247
ltoes -6.82613
273
root -0.0154 17.4258 -9.0163 2.20731 0.3061 -1.80291
lowerback 19.5745 -0.857163 -0.931305
upperback 2.40776 -1.37071 -0.551737
thorax -8.3431 -0.634442 0.293187
lowerneck -1.23885 0.604934 -0.878202
upperneck -12.9597 0.884617 0.835662
head -4.01293 0.445727 0.403075
rclavicle 6.55989e-015 8.74653e-015
rhumerus -44.431 11.6081 -88.3359
rradius 83.8152
rwrist 1.0927
rhand -34.654 35.1855
rfingers 7.12502
rthumb -7.81078 5.34975
lclavicle 6.55989e-015 8.74653e-015
lhumerus -39.0637 -12.8151 91.8634
lradius 110.711
lwrist 26.9173
lhand -38.0637 7.55526
lfingers 7.12502
lthumb -11.1008 37.2417
rfemur -5.98482 -4.11157 22.3787
rtibia 99.4168
rfoot 20.2925 -11.0165
rtoes 26.7005
lfemur -25.1285 -0.0185844 -22.4215
ltibia 42.0172
lfoot -13.058 -2.11767
ltoes -9.74982
274
root -0.0153 17.346 -8.7588 2.21653 0.3061 0.159403
lowerback 19.4716 -0.672744 -3.0534
upperback 2.49092 -1.61457 -1.02146
thorax -8.14899 -0.693836 1.05261
lowerneck -0.683529 0.755568 -1.37495
upperneck -13.3751 1.10903 1.17524
head -4.28129 0.564868 0.595907
rclavicle 2.127e-014 1.74931e-014
rhumerus -45.0557 10.2506 -87.5254
rradius 82.1623
rwrist 1.90138
rhand -35.2196 35.7626
rfingers 7.12502
rthumb -8.35672 5.94791
lclavicle 2.127e-014 1.74931e-014
lhumerus -36.3093 -13.7364 91.5275
lradius 110.915
lwrist 26.4719
lhand -38.6022 8.43694
lfingers 7.12502
lthumb -11.62 38.0948
rfemur -9.12078 -4.6831 19.2869
rtibia 103.118
rfoot 19.3505 -9.81538
rtoes 29.5881
lfemur -23.7532 -0.279133 -24.7225
ltibia 43.0634
lfoot -15.0605 -0.882603
ltoes -12.2956
275
root -0.0153 17.2677 -8.5012 2.35043 0.3061 1.80999
lowerback 19.7985 -0.574376 -4.94321
upperback 2.06804 -1.95186 -1.34302
thorax -8.72727 -0.778894 1.87557
lowerneck 0.629205 0.898846 -1.97819
upperneck -13.8041 1.30083 1.51306
head -4.71304 0.669702 0.808765
rclavicle -1.86858e-014 -8.74653e-015
rhumerus -46.5796 9.28048 -86.7888
rradius 80.807
rwrist 2.47244
rhand -35.2545 36.1482
rfingers 7.12502
rthumb -8.39041 6.3349
lclavicle -1.86858e-014 -8.74653e-015
lhumerus -34.3972 -14.3364 91.2343
lradius 111.352
lwrist 26.3692
lhand -38.3237 9.13581
lfingers 7.12502
lthumb -11.3515 38.8086
rfemur -12.6705 -5.2483 16.6829
rtibia 106.445
rfoot 19.4351 -8.42786
rtoes 35.1131
lfemur -22.2753 -0.648637 -26.5969
ltibia 43.6251
lfoot -16.8597 0.129853
ltoes -13.5473
276
root -0.0152 17.2056 -8.2437 2.59884 0.3061 2.40544
lowerback 19.9836 -0.478732 -5.46215
upperback 2.11304 -1.97742 -1.63417
thorax -8.771 -0.777021 1.86309
lowerneck -0.243611 0.812901 -1.7659
upperneck -13.7963 1.2276 1.67776
head -4.53406 0.618313 0.831005
rclavicle 8.34896e-015 2.46493e-014
rhumerus -47.145 7.56825 -86.0306
rradius 79.6136
rwrist 2.7839
rhand -36.1751 34.2531
rfingers 7.12502
rthumb -9.27875 4.4773
lclavicle 8.34896e-015 2.46493e-014
lhumerus -31.1777 -15.706 90.3969
lradius 111.486
lwrist 26.372
lhand -38.0314 9.71391
lfingers 7.12502
lthumb -11.0696 39.402
rfemur -16.4926 -5.73064 15.6402
rtibia 109.125
rfoot 17.2947 -8.51265
rtoes 31.4092
lfemur -20.8797 -0.911715 -27.3294
ltibia 43.9845
lfoot -18.2081 0.358706
ltoes -13.0251
277
root -0.0151 17.1661 -7.9861 2.91588 0.3061 2.281
lowerback 19.7487 -0.621594 -5.34185
upperback 2.05149 -2.11569 -1.53413
thorax -8.70113 -0.846794 1.93552
lowerneck -0.124251 0.910346 -1.94786
upperneck -13.9941 1.35652 1.71714
head -4.63647 0.688761 0.87237
rclavicle -4.17448e-015 1.59028e-014
rhumerus -48.1842 6.44864 -85.1293
rradius 78.8372
rwrist 2.69208
rhand -37.0302 32.913
rfingers 7.12502
rthumb -10.1037 3.1756
lclavicle -4.17448e-015 1.59028e-014
lhumerus -28.3684 -16.4614 89.7879
lradius 111.574
lwrist 26.2948
lhand -37.9653 10.0902
lfingers 7.12502
lthumb -11.0058 39.7817
rfemur -20.2897 -6.23126 15.754
rtibia 111.05
rfoot 15.4216 -9.00094
rtoes 28.8311
lfemur -19.4632 -1.16526 -27.285
ltibia 44.186
lfoot -19.2708 0.192901
ltoes -12.0145
278
root -0.015 17.1373 -7.7286 3.23186 0.3061 1.87043
lowerback 19.3295 -0.82096 -4.7409
upperback 2.30885 -2.20035 -1.44038
thorax -8.20187 -0.924151 1.7051
lowerneck -0.678156 0.91751 -1.86859
upperneck -14.2318 1.37068 1.63716
head -4.61286 0.697757 0.832304
rclavicle -1.98785e-015 -1.66979e-014
rhumerus -48.5987 5.01092 -84.2084
rradius 78.2342
rwrist 2.40619
rhand -37.4186 32.9751
rfingers 7.12502
rthumb -10.4784 3.25627
lclavicle -1.98785e-015 -1.66979e-014
lhumerus -24.7452 -17.3584 88.8875
lradius 111.42
lwrist 26.0679
lhand -37.6368 10.6365
lfingers 7.12502
lthumb -10.6889 40.3446
rfemur -24.0541 -6.68361 16.483
rtibia 112.381
rfoot 11.1373 -10.0816
rtoes 15.8144
lfemur -17.9715 -1.43686 -26.9406
ltibia 44.2083
lfoot -20.2141 0.623509
ltoes -13.6826
279
root -0.0149 17.1185 -7.471 3.36327 0.3061 1.79784
lowerback 19.4203 -0.958737 -4.48781
upperback 2.49866 -2.32454 -1.44109
thorax -8.04609 -0.997927 1.59255
lowerneck -1.90342 0.908872 -1.72463
upperneck -13.8255 1.36162 1.51065
head -4.22047 0.695882 0.765273
rclavicle 1.13307e-014 -9.54166e-015
rhumerus -48.9786 3.83573 -83.3947
rradius 77.7932
rwrist 2.01061
rhand -37.5969 33.2817
rfingers 7.12502
rthumb -10.6505 3.57161
lclavicle 1.13307e-014 -9.54166e-015
lhumerus -21.3235 -17.9621 87.9163
lradius 111.314
lwrist 26.0174
lhand -37.0775 10.7818
lfingers 7.12502
lthumb -10.1494 40.517
rfemur -27.5545 -6.84465 16.8651
rtibia 113.175
rfoot 10.6598 -9.99813
rtoes 16.3451
lfemur -16.0888 -1.38437 -27.0135
ltibia 43.8924
lfoot -20.8257 0.773469
ltoes -14.603
280
root -0.0148 17.1147 -7.2135 3.4056 0.3061 1.83886
lowerback 19.6528 -1.06342 -4.53872
upperback 2.34178 -2.4871 -1.37026
thorax -8.32972 -1.06343 1.7489
lowerneck -2.18139 1.0753 -1.79771
upperneck -13.4898 1.57249 1.39667
head -4.04908 0.808953 0.733531
rclavicle -1.78906e-014 -1.59028e-015
rhumerus -50.1577 3.35452 -82.6781
rradius 77.7227
rwrist 1.33041
rhand -37.4056 33.3446
rfingers 7.12502
rthumb -10.4659 3.62517
lclavicle -1.78906e-014 -1.59028e-015
lhumerus -19.1726 -17.9725 87.3777
lradius 111.487
lwrist 25.8335
lhand -36.1416 10.8658
lfingers 7.12502
lthumb -9.24639 40.643
rfemur -30.8709 -6.47484 17.1831
rtibia 113.414
rfoot 10.0542 -9.92069
rtoes 13.3757
lfemur -13.8734 -0.994412 -27.2006
ltibia 43.2142
lfoot -21.0951 0.869975
ltoes -15.7684
281
root -0.0148 17.1325 -6.9559 3.4259 0.3061 2.2134
lowerback 19.493 -1.12319 -4.85211
upperback 2.40372 -2.62995 -1.484
thorax -8.15783 -1.12939 1.83352
lowerneck -2.51837 1.21608 -1.58582
upperneck -13.391 1.7462 1.19052
head -3.9467 0.893609 0.624166
rclavicle 2.32578e-014 2.38542e-015
rhumerus -50.9895 2.78677 -82.1571
rradius 77.6884
rwrist 0.7368
rhand -37.4593 32.6657
rfingers 7.12502
rthumb -10.5177 2.94888
lclavicle 2.32578e-014 2.38542e-015
lhumerus -16.8686 -18.0385 86.6555
lradius 111.524
lwrist 25.4489
lhand -35.5958 10.5741
lfingers 7.12502
lthumb -8.71975 40.374
rfemur -33.8478 -6.02189 17.0481
rtibia 113.05
rfoot 11.2114 -9.07444
rtoes 16.8984
lfemur -11.4347 -0.702153 -27.7487
ltibia 42.1118
lfoot -20.8026 1.09381
ltoes -17.1854
282
root -0.0147 17.1748 -6.6983 3.41362 0.3061 2.62673
lowerback 19.266 -1.25293 -5.0834
upperback 2.60511 -2.83991 -1.66776
thorax -7.79944 -1.23913 1.80712
lowerneck -3.43259 1.35278 -1.2568
upperneck -12.9578 1.92283 1.03508
head -3.61615 0.973968 0.516201
rclavicle -3.24019e-014 2.38542e-015
rhumerus -51.4758 2.17693 -81.8319
rradius 77.5172
rwrist 0.624811
rhand -38.6765 32.2702
rfingers 7.12502
rthumb -11.6917 2.61648
lclavicle -3.24019e-014 2.38542e-015
lhumerus -14.5855 -18.2842 85.8705
lradius 111.487
lwrist 25.2095
lhand -36.3789 8.59208
lfingers 7.12502
lthumb -9.47542 38.3591
rfemur -36.2322 -5.64446 16.8697
rtibia 111.98
rfoot 10.8995 -8.65063
rtoes 19.5927
lfemur -8.81249 -0.466299 -28.3159
ltibia 40.6784
lfoot -20.053 1.18377
ltoes -19.5618
283
root -0.0146 17.2304 -6.4408 3.43574 0.3061 3.05224
lowerback 18.9993 -1.51404 -5.43969
upperback 2.57567 -3.24222 -1.71225
thorax -7.64349 -1.42736 2.04923
lowerneck -3.43841 1.59229 -1.29815
upperneck -12.79 2.23639 0.962497
head -3.55982 1.13373 0.493147
rclavicle -9.14409e-015 -2.78299e-014
rhumerus -52.4334 2.1015 -81.4909
rradius 77.5677
rwrist 0.649556
rhand -40.168 32.0158
rfingers 7.12502
rthumb -13.1298 2.44919
lclavicle -9.14409e-015 -2.78299e-014
lhumerus -13.221 -18.1562 85.5539
lradius 111.698
lwrist 25.2216
lhand -37.3126 6.62142
lfingers 7.12502
lthumb -10.3762 36.3454
rfemur -38.2425 -5.34693 16.6772
rtibia 110.361
rfoot 9.38073 -8.03162
rtoes 19.861
lfemur -6.08702 -0.327993 -28.8115
ltibia 39.0088
lfoot -18.7446 0.91341
ltoes -22.9251
